<?xml version="1.0" encoding="UTF-8"?>
<svg width="230px" height="70px" viewBox="0 0 230 70" version="1.1" xmlns="http://www.w3.org/2000/svg" xmlns:xlink="http://www.w3.org/1999/xlink">
    <title>tiyu-logo</title>
    <defs>
        <path d="M1.40003889,1.28775 C0.467194444,2.1465 0,3.23025 0,4.54125 L0,4.54125 C0,5.81775 0.463333333,6.8805 1.39077222,7.72875 L1.39077222,7.72875 C2.31743889,8.57625 3.47654444,9 4.86886111,9 L4.86886111,9 C6.32604444,9 7.5338,8.57625 8.49135556,7.72875 L8.49135556,7.72875 C9.44891111,6.8805 9.92846111,5.8095 9.92846111,4.51575 L9.92846111,4.51575 C9.92846111,3.222 9.45354444,2.1465 8.50371111,1.28775 L8.50371111,1.28775 C7.55542222,0.429 6.36774444,0 4.94067778,0 L4.94067778,0 C3.51361111,0 2.33365556,0.429 1.40003889,1.28775 L1.40003889,1.28775 Z M2.39157222,6.90225 C1.70892778,6.27375 1.36683333,5.48775 1.36683333,4.54125 L1.36683333,4.54125 C1.36683333,3.5655 1.70738333,2.763 2.38693889,2.136 L2.38693889,2.136 C3.06881111,1.5075 3.93678889,1.19325 4.99318889,1.19325 L4.99318889,1.19325 C5.99785,1.19325 6.84420556,1.5105 7.5338,2.145 L7.5338,2.145 C8.22339444,2.77875 8.56703333,3.561 8.56703333,4.49025 L8.56703333,4.49025 C8.56703333,5.44575 8.22339444,6.24375 7.5338,6.8835 L7.5338,6.8835 C6.84420556,7.524 5.98472222,7.84425 4.95380556,7.84425 L4.95380556,7.84425 C3.92829444,7.84425 3.07421667,7.53075 2.39157222,6.90225 L2.39157222,6.90225 Z M122.387956,0.65925 C121.883694,1.0905 121.631178,1.6515 121.631178,2.343 L121.631178,2.343 C121.631178,2.80275 121.764772,3.21 122.031189,3.564 L122.031189,3.564 C122.297606,3.91725 122.745494,4.27725 123.374856,4.64175 L123.374856,4.64175 L124.380289,5.21925 C125.189578,5.697 125.594994,6.20325 125.594994,6.73875 L125.594994,6.73875 C125.594994,7.07025 125.456767,7.34475 125.181083,7.56525 L125.181083,7.56525 C124.906944,7.785 124.560989,7.8945 124.14785,7.8945 L124.14785,7.8945 C123.210372,7.8945 122.384867,7.46625 121.671333,6.6075 L121.671333,6.6075 L121.671333,8.202 C122.420389,8.7345 123.248983,9 124.160978,9 L124.160978,9 C124.953278,9 125.597311,8.78025 126.093078,8.34075 L126.093078,8.34075 C126.588844,7.9005 126.836728,7.32975 126.836728,6.62625 L126.836728,6.62625 C126.836728,5.63775 126.273006,4.8255 125.144789,4.1895 L125.144789,4.1895 L124.134722,3.624 C123.681428,3.37275 123.353233,3.132 123.150139,2.9025 L123.150139,2.9025 C122.947817,2.6715 122.846656,2.424 122.846656,2.16 L122.846656,2.16 C122.846656,1.863 122.984883,1.62 123.262883,1.42875 L123.262883,1.42875 C123.540111,1.23825 123.894561,1.143 124.326233,1.143 L124.326233,1.143 C125.092278,1.143 125.808128,1.446 126.473011,2.0535 L126.473011,2.0535 L126.473011,0.6285 C125.830522,0.2175 125.123939,0.01275 124.352489,0.01275 L124.352489,0.01275 C123.547061,0.01275 122.892217,0.22875 122.387956,0.65925 L122.387956,0.65925 Z M131.290906,0.11325 L131.290906,1.23075 L134.455472,1.23075 L134.455472,8.8995 L135.782922,8.8995 L135.782922,1.23075 L139,1.23075 L139,0.11325 L131.290906,0.11325 Z M55.6447889,0.11325 L55.6447889,1.23075 L58.8093556,1.23075 L58.8093556,8.8995 L60.1375778,8.8995 L60.1375778,1.23075 L63.3538833,1.23075 L63.3538833,0.11325 L55.6447889,0.11325 Z M111.542867,0.126 L111.542867,8.8875 L116.899,8.8875 L116.899,7.76925 L112.864139,7.76925 L112.864139,5.043 L116.641078,5.043 L116.641078,3.9195 L112.864139,3.9195 L112.864139,1.2435 L116.773128,1.2435 L116.773128,0.126 L111.542867,0.126 Z M100.137917,0.126 L100.137917,8.8995 L103.262328,8.8995 C103.967367,8.8995 104.552711,8.7885 105.022994,8.5665 L105.022994,8.5665 C105.491733,8.3445 105.847728,8.058 106.088661,7.707 L106.088661,7.707 C106.331911,7.3545 106.453922,6.954 106.453922,6.507 L106.453922,6.507 C106.453922,5.9415 106.253917,5.4555 105.85545,5.04975 L105.85545,5.04975 C105.456211,4.644 104.920289,4.38 104.246911,4.2585 L104.246911,4.2585 C105.184389,3.88575 105.6539,3.26775 105.6539,2.40525 L105.6539,2.40525 C105.6539,1.95825 105.541156,1.563 105.316439,1.22175 L105.316439,1.22175 C105.092494,0.8805 104.766617,0.61275 104.338806,0.41775 L104.338806,0.41775 C103.912539,0.22275 103.317156,0.126 102.555744,0.126 L102.555744,0.126 L100.137917,0.126 Z M101.459189,1.2435 L102.595128,1.2435 C103.723344,1.2435 104.286294,1.66425 104.286294,2.505 L104.286294,2.505 C104.286294,2.91225 104.138028,3.243 103.840722,3.498 L103.840722,3.498 C103.543417,3.75375 103.042244,3.88125 102.337978,3.88125 L102.337978,3.88125 L101.459189,3.88125 L101.459189,1.2435 Z M101.459189,4.9995 L102.695517,4.9995 C103.349589,4.9995 103.830683,5.0535 104.134167,5.163 L104.134167,5.163 C104.438422,5.27175 104.672406,5.43675 104.836889,5.65875 L104.836889,5.65875 C105.002917,5.88 105.085544,6.126 105.085544,6.393 L105.085544,6.393 C105.085544,6.65325 105.006778,6.8955 104.850789,7.122 L104.850789,7.122 C104.6948,7.3485 104.487844,7.51425 104.229922,7.6215 L104.229922,7.6215 C103.972772,7.72875 103.481639,7.78125 102.760383,7.78125 L102.760383,7.78125 L101.459189,7.78125 L101.459189,4.9995 Z M82.0408889,0.126 L82.0408889,8.8875 L87.3970222,8.8875 L87.3970222,7.76925 L83.3613889,7.76925 L83.3613889,5.043 L87.1391,5.043 L87.1391,3.9195 L83.3613889,3.9195 L83.3613889,1.2435 L87.27115,1.2435 L87.27115,0.126 L82.0408889,0.126 Z M74.8962889,0.126 L74.8962889,3.9195 L69.7115889,3.9195 L69.7115889,0.126 L68.3903167,0.126 L68.3903167,8.8995 L69.7115889,8.8995 L69.7115889,5.08125 L74.8962889,5.08125 L74.8962889,8.8995 L76.2175611,8.8995 L76.2175611,0.126 L74.8962889,0.126 Z M44.1726556,0.126 L41.6683389,3.153 L39.1987722,0.126 L37.6010444,0.126 L41.0080889,4.2585 L41.0080889,8.8995 L42.3633389,8.8995 L42.3633389,4.2585 L45.7703833,0.126 L44.1726556,0.126 Z M29.68345,0.126 L29.68345,8.8995 L35.16005,8.8995 L35.16005,7.75575 L31.0054944,7.75575 L31.0054944,0.126 L29.68345,0.126 Z M22.6662667,0.126 L22.6662667,6.93375 L16.4437,0.126 L15.3734,0.126 L15.3734,8.8995 L16.6151333,8.8995 L16.6151333,2.148 L22.7851889,8.8995 L23.9211278,8.8995 L23.9211278,0.126 L22.6662667,0.126 Z" id="path-1"></path>
        <path d="M48.4739545,0.272390244 C48.6903182,1.16917073 49.0975455,2.12604878 49.6979545,3.14302439 L49.6979545,3.14302439 L35.9967273,3.14302439 L35.9967273,5.75765854 L43.3685455,5.75765854 L39.0528636,8.88117073 C37.8783182,9.77639024 37.3513182,10.6965854 37.4710909,11.6409756 L37.4710909,11.6409756 C37.6874545,12.6821463 38.5737727,13.2152195 40.1315909,13.2394146 L40.1315909,13.2394146 L58.6144545,13.2394146 L58.6144545,10.6247805 L43.9797727,10.6247805 C43.6675909,10.6247805 43.4751818,10.5397073 43.4040909,10.369561 L43.4040909,10.369561 C43.3569545,10.2001951 43.4643636,10.019122 43.7278636,9.82556098 L43.7278636,9.82556098 L49.3370909,5.75765854 L67.7480909,5.75765854 L67.7480909,3.14302439 L54.2624545,3.14302439 C53.6404091,2.05268293 53.2455455,1.09580488 53.0770909,0.272390244 L53.0770909,0.272390244 L48.4739545,0.272390244 Z M18.4133182,0.272390244 L18.4133182,5.9395122 L9.85536364,5.9395122 L9.85536364,9.09892683 L18.4133182,9.09892683 L18.4133182,22.2462439 L14.3503182,22.2462439 L14.4577273,21.4837073 C14.7451818,19.1352195 14.9375909,15.7213659 15.0334091,11.2421463 L15.0334091,11.2421463 L11.9046364,11.2421463 C11.9046364,15.4302439 11.7732727,18.6513171 11.5097727,20.9022439 L11.5097727,20.9022439 C11.2694545,22.9369756 10.5260909,24.3410732 9.27890909,25.1160976 L9.27890909,25.1160976 L9.27890909,28.892878 C11.0059545,28.3363902 12.3365909,27.1742439 13.2708182,25.406439 L13.2708182,25.406439 L18.4133182,25.406439 L18.4133182,31.3982439 L22.6919091,31.3982439 L22.6919091,25.406439 L27.7980909,25.406439 C28.7323182,27.1742439 30.0637273,28.3363902 31.79,28.892878 L31.79,28.892878 L31.79,25.1160976 C30.6146818,24.4370732 29.8720909,23.0337561 29.5599091,20.9022439 L29.5599091,20.9022439 C29.3211364,19.2561951 29.1897727,16.0359024 29.1650455,11.2421463 L29.1650455,11.2421463 L26.0007273,11.2421463 C26.0957727,15.7939512 26.2997727,19.2078049 26.6119545,21.4837073 L26.6119545,21.4837073 L26.7193636,22.2462439 L22.6919091,22.2462439 L22.6919091,9.09892683 L31.2135455,9.09892683 L31.2135455,5.9395122 L22.6919091,5.9395122 L22.6919091,0.272390244 L18.4133182,0.272390244 Z M5.54045455,0.272390244 C5.25222727,2.33131707 4.59309091,4.28097561 3.56227273,6.12058537 L3.56227273,6.12058537 C2.5075,8.03356098 1.33218182,9.43765854 0.0386363636,10.3336585 L0.0386363636,10.3336585 L0.0386363636,14.364878 C2.86759091,13.0817561 5.19272727,10.9635122 7.01481818,8.00936585 L7.01481818,8.00936585 C8.33309091,5.7084878 9.23177273,3.1297561 9.71163636,0.272390244 L9.71163636,0.272390244 L5.54045455,0.272390244 Z M56.0258182,7.02829268 C56.7684091,8.82029268 58.0271818,10.2852683 59.8013636,11.4232195 L59.8013636,11.4232195 C61.5268636,12.5361951 63.4926818,13.2027317 65.6988182,13.4204878 L65.6988182,13.4204878 L65.6988182,10.4780488 C64.5235,10.3094634 63.3968636,9.87395122 62.3173636,9.1715122 L62.3173636,9.1715122 C61.4789545,8.6142439 60.8561364,7.90009756 60.4481364,7.02829268 L60.4481364,7.02829268 L56.0258182,7.02829268 Z M3.09477273,31.3982439 L7.33781818,31.3982439 L7.33781818,13.566439 L3.09477273,13.566439 L3.09477273,31.3982439 Z M38.2252727,15.2359024 L38.2252727,17.7787317 L58.6863182,17.7787317 C60.2688636,17.8279024 61.0833182,18.6263415 61.132,20.1763902 L61.132,20.1763902 L61.132,26.4952195 C61.132,28.1662439 60.197,29.0013659 58.3277727,29.0013659 L58.3277727,29.0013659 L53.0770909,29.0013659 L53.0770909,31.3982439 L58.7226364,31.3982439 C60.8321818,31.4232195 62.3907727,31.1203902 63.3968636,30.4905366 L63.3968636,30.4905366 C64.787,29.6195122 65.4824545,28.1061463 65.4824545,25.9512195 L65.4824545,25.9512195 L65.4824545,20.4667317 C65.4824545,18.6747317 65.0141818,17.3674146 64.0799545,16.544 L64.0799545,16.544 C63.0970455,15.6721951 61.5392273,15.2359024 59.4057273,15.2359024 L59.4057273,15.2359024 L38.2252727,15.2359024 Z M38.2252727,18.7957073 L38.2252727,31.3982439 L42.5772727,31.3982439 L42.5772727,26.4952195 L59.6931818,26.4952195 L59.6931818,24.3527805 L42.5772727,24.3527805 L42.5772727,22.1377561 L59.6931818,22.1377561 L59.6931818,19.9953171 L42.5772727,19.9953171 L42.5772727,18.7957073 L38.2252727,18.7957073 Z" id="path-3"></path>
        <path d="M0.682575758,0 L0.682575758,31.4146341 L13.6606061,31.4146341 L13.9659091,31.4130732 C20.8424242,31.3287805 24.280303,28.3691707 24.280303,22.5365854 L24.280303,22.5365854 C24.280303,19.4614634 23.325,17.185561 21.4128788,15.7073171 L21.4128788,15.7073171 C23.325,14.2290732 24.280303,11.9531707 24.280303,8.87804878 L24.280303,8.87804878 C24.280303,2.95960976 20.7409091,0 13.6606061,0 L13.6606061,0 L0.682575758,0 Z M4.65984848,4.37073171 L13.2636364,4.37073171 C17.9560606,4.37073171 20.3030303,5.85131707 20.3030303,8.8124878 L20.3030303,8.8124878 C20.3030303,12.0437073 17.9560606,13.6585366 13.2636364,13.6585366 L13.2636364,13.6585366 L4.65984848,13.6585366 L4.65984848,4.37073171 Z M4.65984848,18.0284878 L13.2636364,18.0284878 C17.9560606,18.0284878 20.3030303,19.5098537 20.3030303,22.4710244 L20.3030303,22.4710244 C20.3030303,25.7022439 17.9560606,27.3170732 13.2636364,27.3170732 L13.2636364,27.3170732 L4.65984848,27.3170732 L4.65984848,18.0284878 Z" id="path-5"></path>
        <path d="M3.57402857,4.02731707 C0.915685714,6.86673171 0,11.0501463 0,15.7073171 L0,15.7073171 C0,20.4035122 0.875571429,24.6181463 3.57402857,27.3873171 L3.57402857,27.3873171 C6.06111429,29.9348293 10.0802571,31.4146341 13.5,31.4146341 L13.5,31.4146341 C16.7785714,31.4146341 20.5994571,30.0550244 23.0286857,27.7900488 L23.0286857,27.7900488 C25.9176857,24.9116098 27,20.5666341 27,15.7073171 L27,15.7073171 C27,10.9205854 25.8397714,6.63414634 23.0286857,3.62458537 L23.0286857,3.62458537 C20.5809429,1.41346341 16.8418286,0 13.5,0 L13.5,0 C10.0463143,0 6.0696,1.50790244 3.57402857,4.02731707 L3.57402857,4.02731707 Z M6.84565714,24.7547317 C4.671,22.5077073 4.05,19.3560976 4.05,15.8439024 L4.05,15.8439024 C4.05,12.3613659 4.70031429,9.23239024 6.84565714,6.93307317 L6.84565714,6.93307317 C8.35997143,5.22536585 11.1834,4.09756098 13.635,4.09756098 L13.635,4.09756098 C16.0079143,4.09756098 18.6616286,5.15356098 20.4235714,6.93307317 L20.4235714,6.93307317 C22.3961143,9.05912195 23.22,12.2645854 23.22,15.8439024 L23.22,15.8439024 C23.22,19.4786341 22.4508857,22.7278049 20.4235714,24.7547317 L20.4235714,24.7547317 C18.6755143,26.5732683 15.9631714,27.5894634 13.635,27.5894634 L13.635,27.5894634 C11.2065429,27.5894634 8.3538,26.4842927 6.84565714,24.7547317 L6.84565714,24.7547317 Z" id="path-7"></path>
        <path d="M0,35 C0,54.33 15.67,70 35,70 L35,70 C54.33,70 70,54.33 70,35 L70,35 C70,15.67 54.33,0 35,0 L35,0 C15.67,0 0,15.67 0,35 L0,35 Z M17.3269231,43.6323077 C15.2415385,40.5346154 13.6,35.3515385 13.7384615,30.8046154 L13.7384615,30.8046154 C13.7384615,25.1592308 15.2661538,20.4838462 18.3,16.6438462 L18.3,16.6438462 C21.3323077,12.8038462 25.2,10.7592308 29.2576923,10.7691943 L29.2576923,10.7691943 C36.1815385,10.76 40.2753846,16.2069231 41.4338462,18.1738462 L41.4338462,18.1738462 C41.5569231,18.3846154 41.4023077,18.6446154 41.16,18.6446154 L41.16,18.6446154 L37.9192308,18.6446154 C37.6815385,18.6446154 37.4692308,18.5084615 37.3584615,18.2969231 L37.3584615,18.2969231 C36.8715385,17.3676923 35.69,15.7715385 35.1784615,15.2884615 L35.1784615,15.2884615 C33.8576923,14.0430769 32.1469231,13.0076923 29.2276923,13.0076923 L29.2276923,13.0076923 C26.31,13.0076923 23.4307692,14.4146154 21.3323077,18.1269231 L21.3323077,18.1269231 C19.2338462,21.8376923 18.3,26.1646154 18.3,30.6592308 L18.3,30.6592308 C18.2538462,34.9223077 19.4353846,40.0123077 21.1923077,43.2138462 L21.1923077,43.2138462 C22.9476923,46.4153846 25.9984615,48.5315385 29.2938462,48.5315385 L29.2938462,48.5315385 C30.7838462,48.5315385 34.1015385,48.4276923 36.86,44.1261538 L36.86,44.1261538 C38.0307692,42.3030769 39.2223077,39.3076923 39.6369231,37.15 L39.6369231,37.15 C40.1361538,34.5561538 40.33,32.5084615 40.3161538,30.0146154 L40.3161538,30.0146154 C40.3192308,27.9284615 39.9961538,26.2015385 39.5784615,24.2846154 L39.5784615,24.2846154 C39.5361538,24.0884615 39.6846154,23.9023077 39.8846154,23.9023077 L39.8846154,23.9023077 L43.6823077,23.9023077 C43.8269231,23.9023077 43.9553846,24.0015385 43.9907692,24.1415385 L43.9907692,24.1415385 C45.13,28.6038462 45.1915385,32.87 44.1584615,36.86 L44.1584615,36.86 C43.0261538,41.0269231 41.3146154,43.9230769 39.8969231,45.4576923 L39.8969231,45.4576923 C38.48,46.9915385 35.2346154,50.7607692 29.3130769,50.7792308 L29.3130769,50.7792308 C29.3,50.7792308 29.2861538,50.7792308 29.2723077,50.7792308 L29.2723077,50.7792308 C29.2715385,50.7792308 29.2707692,50.7792308 29.2707692,50.7792308 L29.2707692,50.7792308 C23.3715385,50.78 19.4092308,46.7223077 17.3269231,43.6323077 L17.3269231,43.6323077 Z M28.3376923,22.1146154 C28.1653846,22.1123077 28.0223077,21.9707692 28.0223077,21.7961538 L28.0223077,21.7961538 L28.0223077,20.7061538 C28.0223077,20.5330769 28.1623077,20.3922946 28.3353846,20.3922946 L28.3353846,20.3922946 L44.3953846,20.3922946 C47.0038462,20.39 49.2646154,20.6923077 51.44,22.4476923 L51.44,22.4476923 C53.6146154,24.2007692 54.9184615,26.8746154 54.8676923,29.6884615 L54.8676923,29.6884615 C54.9269231,32.6307692 53.4415385,35.7492308 50.2469231,37.7323077 L50.2469231,37.7323077 C50.1438462,37.7976923 50.0138462,37.8084615 49.8976923,37.7692308 L49.8976923,37.7692308 C49.0338462,37.4753846 48.5846154,37.4307692 47.9407692,37.3353846 L47.9407692,37.3353846 C47.4969231,37.27 46.7792308,37.2053846 46.3746154,37.1707692 L46.3746154,37.1707692 C46.2938462,37.1653846 46.2707692,37.0546154 46.3438462,37.0169231 L46.3438462,37.0169231 C48.6607692,35.8015385 49.6538462,32.3576923 49.6538462,30.3823077 L49.6538462,30.3823077 C49.7430769,27.0130769 48.9346154,25.1638462 47.8869231,23.7076923 L47.8869231,23.7076923 C47.24,22.8053846 46.3661538,22.4076923 45.7915385,22.2353846 L45.7915385,22.2353846 C45.5146154,22.1507692 45.2253846,22.1146154 44.9361538,22.1146154 L44.9361538,22.1146154 L38.7723077,22.1146154 C38.1661538,22.1146154 37.6753846,22.6092308 37.6769231,23.2184615 L37.6769231,23.2184615 C37.6861538,25.8046154 37.6923077,28.1684615 37.6938462,30.31 L37.6938462,30.31 L37.6930769,32.0730769 C37.6907692,34.1984615 37.6846154,36.0769231 37.6715385,37.7092308 L37.6715385,37.7092308 C37.64,42.27 34.62,45.13 33.3676923,46.0861538 L33.3676923,46.0861538 C33.1623077,46.2438462 32.8653846,46.0946154 32.8653846,45.8346154 L32.8653846,45.8346154 L32.8661538,35.6523077 L32.8669231,35.0223077 C32.8715385,32.3507692 32.8753846,29.7161538 32.8792308,27.7461538 L32.8792308,27.7461538 L32.8792308,27.3030769 C32.8792308,27.0876923 32.88,26.8815385 32.88,26.6869231 L32.88,26.6869231 L32.8807692,26.3107692 L32.8807692,26.1330769 L32.8815385,25.8023077 L32.8815385,25.6484615 L32.8823077,25.1176923 L32.8823077,25.0076923 L32.8823077,24.5969231 C32.9023077,23.3292308 31.5615385,22.0876923 30.2876923,22.1146154 L30.2876923,22.1146154 C30.06,22.1153846 29.8576923,22.1153846 29.6684615,22.1153846 L29.6684615,22.1153846 L29.3053846,22.1146154 L29.13,22.1146154 L28.9407692,22.1146154 C28.8123077,22.1146154 28.6830769,22.1161538 28.5469231,22.1161538 L28.5469231,22.1161538 C28.4792308,22.1161538 28.4092308,22.1153846 28.3376923,22.1146154 L28.3376923,22.1146154 Z M44.1153846,40.3015385 C44.0261538,40.2953846 43.9692308,40.2038462 43.9984615,40.1176923 L43.9984615,40.1176923 C44.1923077,39.5446154 44.3484615,39.0030769 44.4715385,38.5061538 L44.4715385,38.5061538 C44.4853846,38.4523077 44.5307692,38.4123077 44.5861538,38.4046154 L44.5861538,38.4046154 C45.0723077,38.3353846 45.5715385,38.2907692 46.0953846,38.2907692 L46.0953846,38.2907692 C47.1453846,38.2907692 48.1592308,38.4476923 49.1138462,38.7353846 L49.1138462,38.7353846 C49.1730769,38.7546154 49.2192308,38.7976923 49.2392308,38.8561538 L49.2392308,38.8561538 L49.4661538,39.47 C49.5046154,39.5776923 49.4430769,39.6946154 49.3330769,39.7223077 L49.3330769,39.7223077 L46.3684615,40.4638462 C46.3484615,40.4661538 46.3284615,40.4684615 46.3076923,40.4707692 L46.3076923,40.4707692 L44.1153846,40.3015385 Z M50.19,46.6023077 L46.5607692,44.0246154 C46.5107692,43.9892308 46.4823077,43.9323077 46.4815385,43.8715385 L46.4815385,43.8715385 L46.427628,41.0430769 C46.4253846,40.9538462 46.4853846,40.8746154 46.5723077,40.8523077 L46.5723077,40.8523077 L49.6953846,40.0769231 C49.7538462,40.0638462 49.8138462,40.0761538 49.8615385,40.1130769 L49.8615385,40.1130769 L52.8961538,42.53 L52.9692308,42.6723077 L53.0938462,45.7076923 C53.0976923,45.7953846 53.0392308,45.8761538 52.9553846,45.8992308 L52.9553846,45.8992308 L50.3523077,46.63 C50.3346154,46.6346154 50.3176923,46.6376923 50.2992308,46.6376923 L50.2992308,46.6376923 C50.2607692,46.6376923 50.2223077,46.6246154 50.19,46.6023077 L50.19,46.6023077 Z M56.3569231,49.6692308 L55.1723077,49.5792308 C55.1,49.5746154 55.0376923,49.5284615 55.01,49.4615385 L55.01,49.4615385 L53.5653846,45.9307692 L53.4230769,42.6846154 C53.4207692,42.6123077 53.4561538,42.5476923 53.5176923,42.5115385 L53.5176923,42.5115385 L54.0230769,42.2076923 C54.1053846,42.1592308 54.2146154,42.1769231 54.2738462,42.2530769 L54.2738462,42.2530769 C55.6907692,44.04 56.5384615,46.3007692 56.5384615,48.7615385 L56.5384615,48.7615385 C56.5384615,49.0407692 56.5269231,49.2792308 56.5053846,49.5423077 L56.5053846,49.5423077 C56.4992308,49.6153846 56.4384615,49.67 56.3676923,49.67 L56.3676923,49.67 C56.3638462,49.67 56.3607692,49.6692308 56.3569231,49.6692308 L56.3569231,49.6692308 Z M45.2515385,53.2292308 L41.9676923,50.8053846 C41.9130769,50.7653846 41.8823077,50.6984615 41.89,50.6307692 L41.89,50.6307692 L42.3492308,46.2746154 C42.3561538,46.2076923 42.3984615,46.1476923 42.4607692,46.12 L42.4607692,46.12 L46.2215385,44.4453846 C46.2838462,44.4169231 46.3546154,44.4246154 46.4107692,44.4646154 L46.4107692,44.4646154 L49.8923077,46.9430769 C49.9492308,46.9838462 49.98,47.0515385 49.9723077,47.12 L49.9723077,47.12 L49.5046154,51.3869231 C49.4976923,51.4569231 49.4538462,51.5153846 49.3907692,51.5423077 L49.3907692,51.5423077 L45.44,53.25 C45.4153846,53.26 45.3892308,53.2653846 45.3630769,53.2653846 L45.3630769,53.2653846 C45.3238462,53.2653846 45.2846154,53.2530769 45.2515385,53.2292308 L45.2515385,53.2292308 Z M38.7161538,52.3307692 L37.1392308,50.6769231 L36.5846154,50.0938462 C36.5284615,50.0315385 36.5384615,49.9330769 36.6069231,49.8853846 L36.6069231,49.8853846 C38.4892308,48.5669231 40.0476923,47.0423077 41.1661538,45.5384615 L41.1661538,45.5384615 C41.2176923,45.47 41.3153846,45.4646154 41.3746154,45.5261538 L41.3746154,45.5261538 L41.7907692,45.9661538 C41.8461538,46.0246154 41.8730769,46.1038462 41.8653846,46.1846154 L41.8653846,46.1846154 L41.41,50.5861538 C41.3807692,50.6346154 41.3569231,50.6769231 41.3276923,50.7238462 L41.3276923,50.7238462 L38.9615385,52.3569231 C38.9292308,52.3792308 38.8907692,52.3907692 38.8538462,52.3907692 L38.8538462,52.3907692 C38.8030769,52.3907692 38.7523077,52.37 38.7161538,52.3307692 L38.7161538,52.3307692 Z M52.3146154,56.5276923 C52.2307692,56.5192308 52.1738462,56.4392308 52.1938462,56.3576923 L52.1938462,56.3576923 L52.9184615,53.4115385 C52.9253846,53.3930769 52.9338462,53.3753846 52.9407692,53.3569231 L52.9407692,53.3569231 L54.9623077,50.0815385 C54.9992308,50.0215385 55.0676923,49.9861538 55.1384615,49.9915385 L55.1384615,49.9915385 L56.24,50.0761538 C56.3523077,50.0846154 56.4346154,50.1853846 56.4184615,50.2969231 L56.4184615,50.2969231 C56.0730769,52.7961538 54.8569231,54.9269231 53.0723077,56.5369231 L53.0723077,56.5369231 C53.0184615,56.5538462 52.9730769,56.5692308 52.9207692,56.5869231 L52.9207692,56.5869231 L52.3146154,56.5276923 Z M39.5784615,56.9223077 C37.7153846,55.4561538 36.4323077,53.4338462 35.9038462,51.0307673 L35.9038462,51.0307673 C35.8938462,50.9861538 35.9076923,50.9369231 35.9392308,50.9030769 L35.9392308,50.9030769 L36.2530769,50.5738462 C36.3069231,50.5169231 36.3969231,50.5161538 36.4523077,50.5730769 L36.4523077,50.5730769 L38.5576923,52.7438462 C38.5692308,52.7584615 38.5807692,52.7746154 38.5915385,52.7915385 L38.5915385,52.7915385 L40.2884615,56.1738462 C40.3230769,56.2415385 40.3146154,56.3238462 40.2661538,56.3823077 L40.2661538,56.3823077 L39.8484615,56.8915385 C39.81,56.9384615 39.7538462,56.9630769 39.6976923,56.9630769 L39.6976923,56.9630769 C39.6553846,56.9630769 39.6138462,56.9492308 39.5784615,56.9223077 L39.5784615,56.9223077 Z M28.0207692,58.9161538 L28.0207692,57.4884615 C28.0207692,57.3146154 28.1615385,57.1753846 28.3353846,57.1753846 L28.3353846,57.1753846 L29.9346154,57.1753846 C31.4492308,57.1753846 32.8469231,56.0553846 32.8469231,54.4584615 L32.8469231,54.4584615 L32.8469231,52.0992308 C32.8469231,52.0346154 32.8907692,51.9807692 32.9515385,51.9661538 L32.9515385,51.9661538 C33.4030769,51.8553846 33.8530769,51.7023077 34.3007692,51.5307692 L34.3007692,51.5307692 C34.3776923,51.5007692 34.4623077,51.5461538 34.4807692,51.6276923 L34.4807692,51.6276923 C35.1946154,54.6507692 37.0453846,57.2253846 39.5569231,58.8861538 L39.5569231,58.8861538 C39.7123077,58.9892308 39.64,59.2307692 39.4538462,59.2307692 L39.4538462,59.2307692 L28.3353846,59.2307692 C28.1615385,59.2307692 28.0207692,59.0892308 28.0207692,58.9161538 L28.0207692,58.9161538 Z M47.6723077,58.1238462 L45.0423077,56.5923077 C44.97,56.5515385 44.9338462,56.4669231 44.9515385,56.3861538 L44.9515385,56.3861538 L45.4946154,53.8253846 C45.5069231,53.7638462 45.5484615,53.7138462 45.6061538,53.6884615 L45.6061538,53.6884615 L49.6215385,51.9584615 C49.6746154,51.9353846 49.7330769,51.9369231 49.7838462,51.9630769 L49.7838462,51.9630769 L52.3269231,53.2807692 C52.4061538,53.3207692 52.4461538,53.4123077 52.4238462,53.4992308 L52.4238462,53.4992308 L51.6861538,56.3769231 C51.6707692,56.4338462 51.6315385,56.4807692 51.5776923,56.5046154 L51.5776923,56.5046154 L47.8446154,58.1330769 C47.82,58.1446154 47.7938462,58.15 47.7684615,58.15 L47.7684615,58.15 C47.7353846,58.15 47.7023077,58.1407692 47.6723077,58.1238462 L47.6723077,58.1238462 Z M40.2369231,57.4176923 C40.1438462,57.3546154 40.1253846,57.2246154 40.1938462,57.1369231 L40.1938462,57.1369231 L40.6069231,56.6053846 C40.6469231,56.5530769 40.7115385,56.5261538 40.7776923,56.5330769 L40.7776923,56.5330769 L44.6546154,56.9276923 C44.68,56.9353846 44.7046154,56.9438462 44.7307692,56.9515385 L44.7307692,56.9515385 L47.3369231,58.4430769 C47.4146154,58.4869231 47.43,58.5923077 47.37,58.6569231 L47.37,58.6569231 L46.9192308,59.1369231 C46.8761538,59.1576923 46.8369231,59.1761538 46.7930769,59.1976923 L46.7930769,59.1976923 C46.5630769,59.2130769 46.3307692,59.2307692 46.0953846,59.2307692 L46.0953846,59.2307692 C43.9084615,59.2307692 41.9130769,58.5692308 40.2369231,57.4176923 L40.2369231,57.4176923 Z" id="path-9"></path>
    </defs>
    <g id="pc" stroke="none" stroke-width="1" fill="none" fill-rule="evenodd">
        <g id="端口切换" transform="translate(-669.000000, -284.000000)">
            <g id="体育" transform="translate(244.000000, 95.000000)">
                <g id="tiyu-logo" transform="translate(425.000000, 189.000000)">
                    <rect id="矩形" x="0" y="0" width="230" height="70"></rect>
                    <g id="体育logo" transform="translate(2.000000, 0.000000)">
                        <g id="编组" transform="translate(88.000000, 53.000000)">
                            <mask id="mask-2" fill="white">
                                <use xlink:href="#path-1"></use>
                            </mask>
                            <g id="Clip-2"></g>
                            <polygon id="Fill-1" fill="#FFB001" mask="url(#mask-2)" points="-3.86111111 12.75 142.861111 12.75 142.861111 -3.75 -3.86111111 -3.75"></polygon>
                        </g>
                        <g id="编组" transform="translate(159.000000, 7.000000)">
                            <mask id="mask-4" fill="white">
                                <use xlink:href="#path-3"></use>
                            </mask>
                            <g id="Clip-4"></g>
                            <polygon id="Fill-3" fill="#FFB001" mask="url(#mask-4)" points="-3.825 35.3030244 71.6117273 35.3030244 71.6117273 -3.62926829 -3.825 -3.62926829"></polygon>
                        </g>
                        <g id="编组" transform="translate(124.000000, 7.000000)">
                            <mask id="mask-6" fill="white">
                                <use xlink:href="#path-5"></use>
                            </mask>
                            <g id="Clip-6"></g>
                            <polygon id="Fill-5" fill="#FFB001" mask="url(#mask-6)" points="-3.10606061 35.3170732 28.0674242 35.3170732 28.0674242 -3.90243902 -3.10606061 -3.90243902"></polygon>
                        </g>
                        <g id="编组" transform="translate(88.000000, 7.000000)">
                            <mask id="mask-8" fill="white">
                                <use xlink:href="#path-7"></use>
                            </mask>
                            <g id="Clip-8"></g>
                            <polygon id="Fill-7" fill="#FFB001" mask="url(#mask-8)" points="-3.85714286 35.3170732 30.8571429 35.3170732 30.8571429 -3.90243902 -3.85714286 -3.90243902"></polygon>
                        </g>
                        <g id="编组">
                            <mask id="mask-10" fill="white">
                                <use xlink:href="#path-9"></use>
                            </mask>
                            <g id="Clip-10"></g>
                            <polygon id="Fill-9" fill="#FFB001" mask="url(#mask-10)" points="-3.84615385 73.8461538 73.8461538 73.8461538 73.8461538 -3.84615385 -3.84615385 -3.84615385"></polygon>
                        </g>
                    </g>
                </g>
            </g>
        </g>
    </g>
</svg>